<svg width="19" height="12" viewBox="0 0 19 12" fill="none" xmlns="http://www.w3.org/2000/svg">
<path d="M9.82812 7C10.9219 7 11.8281 6.125 11.8281 5C11.8281 3.90625 10.9219 3 9.82812 3C9.79688 3 9.76562 3.03125 9.73438 3.03125C9.76562 3.1875 9.79688 3.34375 9.79688 3.53125C9.79688 4.34375 9.14062 5 8.32812 5C8.14062 5 7.98438 4.96875 7.82812 4.9375C7.82812 4.96875 7.82812 5 7.82812 5C7.82812 6.125 8.70312 7 9.82812 7ZM18.7031 5.5625C17.0156 2.25 13.6406 0 9.82812 0C5.98438 0 2.60938 2.25 0.921875 5.5625C0.859375 5.6875 0.828125 5.84375 0.828125 6C0.828125 6.1875 0.859375 6.34375 0.921875 6.46875C2.60938 9.78125 5.98438 12 9.82812 12C13.6406 12 17.0156 9.78125 18.7031 6.46875C18.7656 6.34375 18.7969 6.1875 18.7969 6.03125C18.7969 5.84375 18.7656 5.6875 18.7031 5.5625ZM9.82812 1C12.0156 1 13.8281 2.8125 13.8281 5C13.8281 7.21875 12.0156 9 9.82812 9C7.60938 9 5.82812 7.21875 5.82812 5C5.82812 2.8125 7.60938 1.03125 9.82812 1ZM9.82812 11C6.45312 11 3.39062 9.09375 1.82812 6C2.70312 4.28125 4.10938 2.84375 5.85938 1.96875C5.20312 2.8125 4.82812 3.875 4.82812 5C4.82812 7.78125 7.04688 10 9.82812 10C12.5781 10 14.8281 7.78125 14.8281 5C14.8281 3.875 14.4219 2.8125 13.7656 1.96875C15.5156 2.84375 16.9219 4.28125 17.8281 6C16.2344 9.09375 13.1719 11 9.82812 11Z" fill="#666666"/>
</svg>
